External Loads File
version=1
nRows=39
nColumns=13
Range=5.000000e-03-10 seconds
endheader
time 	forceRightX 	forceRightY 	forceRightZ 	pointRightX 	pointRightY 	pointRightZ 	forceLeftX 	forceLeftY 	forceLeftZ 	pointLeftX 	pointLeftY 	pointLeftZ 		
5.005000 -72.563570 572.563437 -0.000000 0.360153 0.270309 -0.161102 41.963732 -14.604690 -0.000000 0.091209 0.374956 -0.399397
5.010000 -51.709700 573.370861 -0.000000 0.356719 0.259997 -0.160973 38.092605 -22.533736 -0.000000 0.094590 0.385774 -0.399286
5.015000 -30.026321 572.200797 -0.000000 0.352485 0.250020 -0.160520 33.371512 -30.755967 -0.000000 0.098398 0.396433 -0.399181
5.020000 -8.170306 568.885246 -0.000000 0.347885 0.240237 -0.160319 27.952500 -38.966656 -0.000000 0.102841 0.406777 -0.399133
5.025000 13.510010 563.354612 -0.000000 0.342614 0.230726 -0.160111 21.986489 -46.895613 -0.000000 0.107767 0.416845 -0.399087
5.030000 34.071076 555.675357 -0.000000 0.336801 0.221728 -0.159902 15.666818 -54.279108 -0.000000 0.113260 0.426545 -0.399031
5.035000 52.981764 546.088091 -0.000000 0.330534 0.213142 -0.159661 9.117541 -60.910998 -0.000000 0.119263 0.435755 -0.399085
5.040000 70.700327 534.850453 -0.000000 0.323850 0.204813 -0.159329 2.264099 -66.564905 -0.000000 0.126292 0.444374 -0.399327
5.045000 85.421097 522.563194 -0.000000 0.316891 0.197120 -0.158994 -4.734746 -70.921793 -0.000000 0.133311 0.452679 -0.399265
5.050000 98.150281 509.455998 -0.000000 0.309522 0.189879 -0.158717 -11.988097 -73.666768 -0.000000 0.140979 0.460260 -0.399537
5.055000 108.181230 495.918942 -0.000000 0.301837 0.183299 -0.158291 -19.242273 -74.579359 -0.000000 0.148551 0.467434 -0.399473
5.060000 116.803230 481.880834 -0.000000 0.293750 0.177180 -0.157919 -26.454111 -73.495791 -0.000000 0.156593 0.473968 -0.399338
5.065000 124.145128 467.449726 -0.000000 0.285241 0.171623 -0.157564 -33.436069 -70.296606 -0.000000 0.164860 0.479882 -0.399344
5.070000 130.769177 452.568117 -0.000000 0.276432 0.166608 -0.157223 -40.087845 -64.813742 -0.000000 0.173526 0.485226 -0.399243
5.075000 136.373102 437.333023 -0.000000 0.267297 0.162305 -0.156948 -46.149173 -57.020395 -0.000000 0.182080 0.489887 -0.399239
5.080000 142.017357 421.322545 -0.000000 0.257874 0.158664 -0.156766 -51.498190 -46.937799 -0.000000 0.191104 0.493841 -0.399362
5.085000 147.214910 404.432941 -0.000000 0.248268 0.155703 -0.156708 -55.796759 -34.912681 -0.000000 0.200119 0.497209 -0.399525
5.090000 152.145076 386.178872 -0.000000 0.238373 0.153412 -0.156667 -58.833111 -21.315987 -0.000000 0.209134 0.499699 -0.399573
5.095000 156.182825 366.238478 -0.000000 0.228746 0.151883 -0.156973 -60.425609 -6.657427 -0.000000 0.218156 0.501533 -0.399586
5.100000 159.424257 343.963239 -0.000000 0.218935 0.151018 -0.157184 -60.559835 8.720971 -0.000000 0.226981 0.502855 -0.399606
5.105000 161.108557 319.185629 -0.000000 0.209252 0.150901 -0.157165 -59.394026 24.467204 -0.000000 0.235438 0.503463 -0.399551
5.110000 161.065862 291.751792 -0.000000 0.199697 0.151480 -0.157022 -57.346101 40.473774 -0.000000 0.243612 0.503265 -0.399612
5.115000 159.051802 261.899983 -0.000000 0.190354 0.152867 -0.156917 -55.060598 56.784929 -0.000000 0.251507 0.502106 -0.399796
5.120000 154.903914 230.242457 -0.000000 0.181280 0.154879 -0.156839 -53.301309 73.681974 -0.000000 0.259113 0.500093 -0.400050
5.125000 148.642669 197.711739 -0.000000 0.172476 0.157811 -0.157158 -52.843240 91.712806 -0.000000 0.266190 0.497198 -0.400251
5.130000 140.703619 165.296770 -0.000000 0.163960 0.161374 -0.157495 -54.288655 111.636996 -0.000000 0.273003 0.493403 -0.400949
5.135000 131.441145 134.240108 -0.000000 0.155804 0.165381 -0.157653 -58.208274 134.095442 -0.000000 0.279490 0.488589 -0.401472
5.140000 121.432177 105.620863 -0.000000 0.147969 0.170139 -0.157719 -64.968366 159.517456 -0.000000 0.285681 0.482987 -0.402018
5.145000 111.281506 80.315550 -0.000000 0.140206 0.175474 -0.158035 -74.718411 188.003578 -0.000000 0.291617 0.476667 -0.402546
5.150000 101.462984 59.083904 -0.000000 0.132910 0.181095 -0.157995 -87.609461 219.178867 -0.000000 0.297547 0.469684 -0.403019
5.155000 92.530804 42.155160 -0.000000 0.125971 0.187289 -0.157828 -103.158745 252.445651 -0.000000 0.303475 0.461970 -0.403324
5.160000 84.825492 29.541746 -0.000000 0.119424 0.193951 -0.157526 -120.948285 286.755409 -0.000000 0.309170 0.453779 -0.403686
5.165000 78.631156 20.650352 -0.000000 0.113259 0.201052 -0.157245 -139.525616 321.148307 -0.000000 0.315300 0.445133 -0.403912
5.170000 73.951281 14.926376 -0.000000 0.107498 0.208598 -0.156986 -158.270724 354.151752 -0.000000 0.321154 0.436025 -0.404191
5.175000 70.675664 11.585925 -0.000000 0.102288 0.216605 -0.156771 -176.502665 384.435319 -0.000000 0.326959 0.426938 -0.403813
5.180000 68.548919 9.857199 -0.000000 0.097605 0.224864 -0.156535 -194.068173 410.830646 -0.000000 0.332298 0.417888 -0.403202
5.185000 67.246172 8.752621 -0.000000 0.093278 0.233497 -0.156376 -209.411083 433.400387 -0.000000 0.337393 0.408306 -0.403060
5.190000 66.334315 7.678351 -0.000000 0.089752 0.242458 -0.156258 -222.882550 451.904511 -0.000000 0.342017 0.398385 -0.403306
5.195000 65.379027 5.987147 -0.000000 0.086678 0.251689 -0.156202 -233.949072 467.009070 -0.000000 0.346580 0.388269 -0.402933
